<?xml version="1.0" encoding="utf-8" standalone="no"?>
<!DOCTYPE svg PUBLIC "-//W3C//DTD SVG 1.1//EN"
  "http://www.w3.org/Graphics/SVG/1.1/DTD/svg11.dtd">
<!-- Created with matplotlib (http://matplotlib.org/) -->
<svg height="947.52pt" version="1.1" viewBox="0 0 1549.44 947.52" width="1549.44pt" xmlns="http://www.w3.org/2000/svg" xmlns:xlink="http://www.w3.org/1999/xlink">
 <defs>
  <style type="text/css">
*{stroke-linecap:butt;stroke-linejoin:round;}
  </style>
 </defs>
 <g id="figure_1">
  <g id="patch_1">
   <path d="M 0 947.52 
L 1549.44 947.52 
L 1549.44 0 
L 0 0 
z
" style="fill:#ffffff;"/>
  </g>
  <g id="axes_1">
   <g id="patch_2">
    <path d="M 216.9216 426.887108 
L 1440.9792 426.887108 
L 1440.9792 66.3264 
L 216.9216 66.3264 
z
" style="fill:#ffffff;"/>
   </g>
   <g id="matplotlib.axis_1">
    <g id="xtick_1">
     <g id="line2d_1">
      <defs>
       <path d="M 0 0 
L 0 3.5 
" id="m5e3c9ace2c" style="stroke:#000000;stroke-width:0.8;"/>
      </defs>
      <g>
       <use style="stroke:#000000;stroke-width:0.8;" x="216.9216" xlink:href="#m5e3c9ace2c" y="426.887108"/>
      </g>
     </g>
     <g id="text_1">
      <!-- 0 -->
      <defs>
       <path d="M 31.78125 66.40625 
Q 24.171875 66.40625 20.328125 58.90625 
Q 16.5 51.421875 16.5 36.375 
Q 16.5 21.390625 20.328125 13.890625 
Q 24.171875 6.390625 31.78125 6.390625 
Q 39.453125 6.390625 43.28125 13.890625 
Q 47.125 21.390625 47.125 36.375 
Q 47.125 51.421875 43.28125 58.90625 
Q 39.453125 66.40625 31.78125 66.40625 
z
M 31.78125 74.21875 
Q 44.046875 74.21875 50.515625 64.515625 
Q 56.984375 54.828125 56.984375 36.375 
Q 56.984375 17.96875 50.515625 8.265625 
Q 44.046875 -1.421875 31.78125 -1.421875 
Q 19.53125 -1.421875 13.0625 8.265625 
Q 6.59375 17.96875 6.59375 36.375 
Q 6.59375 54.828125 13.0625 64.515625 
Q 19.53125 74.21875 31.78125 74.21875 
z
" id="DejaVuSans-30"/>
      </defs>
      <g transform="translate(213.74035 441.485545)scale(0.1 -0.1)">
       <use xlink:href="#DejaVuSans-30"/>
      </g>
     </g>
    </g>
    <g id="xtick_2">
     <g id="line2d_2">
      <g>
       <use style="stroke:#000000;stroke-width:0.8;" x="373.852062" xlink:href="#m5e3c9ace2c" y="426.887108"/>
      </g>
     </g>
     <g id="text_2">
      <!-- 10 -->
      <defs>
       <path d="M 12.40625 8.296875 
L 28.515625 8.296875 
L 28.515625 63.921875 
L 10.984375 60.40625 
L 10.984375 69.390625 
L 28.421875 72.90625 
L 38.28125 72.90625 
L 38.28125 8.296875 
L 54.390625 8.296875 
L 54.390625 0 
L 12.40625 0 
z
" id="DejaVuSans-31"/>
      </defs>
      <g transform="translate(367.489562 441.485545)scale(0.1 -0.1)">
       <use xlink:href="#DejaVuSans-31"/>
       <use x="63.623047" xlink:href="#DejaVuSans-30"/>
      </g>
     </g>
    </g>
    <g id="xtick_3">
     <g id="line2d_3">
      <g>
       <use style="stroke:#000000;stroke-width:0.8;" x="530.782523" xlink:href="#m5e3c9ace2c" y="426.887108"/>
      </g>
     </g>
     <g id="text_3">
      <!-- 20 -->
      <defs>
       <path d="M 19.1875 8.296875 
L 53.609375 8.296875 
L 53.609375 0 
L 7.328125 0 
L 7.328125 8.296875 
Q 12.9375 14.109375 22.625 23.890625 
Q 32.328125 33.6875 34.8125 36.53125 
Q 39.546875 41.84375 41.421875 45.53125 
Q 43.3125 49.21875 43.3125 52.78125 
Q 43.3125 58.59375 39.234375 62.25 
Q 35.15625 65.921875 28.609375 65.921875 
Q 23.96875 65.921875 18.8125 64.3125 
Q 13.671875 62.703125 7.8125 59.421875 
L 7.8125 69.390625 
Q 13.765625 71.78125 18.9375 73 
Q 24.125 74.21875 28.421875 74.21875 
Q 39.75 74.21875 46.484375 68.546875 
Q 53.21875 62.890625 53.21875 53.421875 
Q 53.21875 48.921875 51.53125 44.890625 
Q 49.859375 40.875 45.40625 35.40625 
Q 44.1875 33.984375 37.640625 27.21875 
Q 31.109375 20.453125 19.1875 8.296875 
z
" id="DejaVuSans-32"/>
      </defs>
      <g transform="translate(524.420023 441.485545)scale(0.1 -0.1)">
       <use xlink:href="#DejaVuSans-32"/>
       <use x="63.623047" xlink:href="#DejaVuSans-30"/>
      </g>
     </g>
    </g>
    <g id="xtick_4">
     <g id="line2d_4">
      <g>
       <use style="stroke:#000000;stroke-width:0.8;" x="687.712985" xlink:href="#m5e3c9ace2c" y="426.887108"/>
      </g>
     </g>
     <g id="text_4">
      <!-- 30 -->
      <defs>
       <path d="M 40.578125 39.3125 
Q 47.65625 37.796875 51.625 33 
Q 55.609375 28.21875 55.609375 21.1875 
Q 55.609375 10.40625 48.1875 4.484375 
Q 40.765625 -1.421875 27.09375 -1.421875 
Q 22.515625 -1.421875 17.65625 -0.515625 
Q 12.796875 0.390625 7.625 2.203125 
L 7.625 11.71875 
Q 11.71875 9.328125 16.59375 8.109375 
Q 21.484375 6.890625 26.8125 6.890625 
Q 36.078125 6.890625 40.9375 10.546875 
Q 45.796875 14.203125 45.796875 21.1875 
Q 45.796875 27.640625 41.28125 31.265625 
Q 36.765625 34.90625 28.71875 34.90625 
L 20.21875 34.90625 
L 20.21875 43.015625 
L 29.109375 43.015625 
Q 36.375 43.015625 40.234375 45.921875 
Q 44.09375 48.828125 44.09375 54.296875 
Q 44.09375 59.90625 40.109375 62.90625 
Q 36.140625 65.921875 28.71875 65.921875 
Q 24.65625 65.921875 20.015625 65.03125 
Q 15.375 64.15625 9.8125 62.3125 
L 9.8125 71.09375 
Q 15.4375 72.65625 20.34375 73.4375 
Q 25.25 74.21875 29.59375 74.21875 
Q 40.828125 74.21875 47.359375 69.109375 
Q 53.90625 64.015625 53.90625 55.328125 
Q 53.90625 49.265625 50.4375 45.09375 
Q 46.96875 40.921875 40.578125 39.3125 
z
" id="DejaVuSans-33"/>
      </defs>
      <g transform="translate(681.350485 441.485545)scale(0.1 -0.1)">
       <use xlink:href="#DejaVuSans-33"/>
       <use x="63.623047" xlink:href="#DejaVuSans-30"/>
      </g>
     </g>
    </g>
    <g id="xtick_5">
     <g id="line2d_5">
      <g>
       <use style="stroke:#000000;stroke-width:0.8;" x="844.643446" xlink:href="#m5e3c9ace2c" y="426.887108"/>
      </g>
     </g>
     <g id="text_5">
      <!-- 40 -->
      <defs>
       <path d="M 37.796875 64.3125 
L 12.890625 25.390625 
L 37.796875 25.390625 
z
M 35.203125 72.90625 
L 47.609375 72.90625 
L 47.609375 25.390625 
L 58.015625 25.390625 
L 58.015625 17.1875 
L 47.609375 17.1875 
L 47.609375 0 
L 37.796875 0 
L 37.796875 17.1875 
L 4.890625 17.1875 
L 4.890625 26.703125 
z
" id="DejaVuSans-34"/>
      </defs>
      <g transform="translate(838.280946 441.485545)scale(0.1 -0.1)">
       <use xlink:href="#DejaVuSans-34"/>
       <use x="63.623047" xlink:href="#DejaVuSans-30"/>
      </g>
     </g>
    </g>
    <g id="xtick_6">
     <g id="line2d_6">
      <g>
       <use style="stroke:#000000;stroke-width:0.8;" x="1001.573908" xlink:href="#m5e3c9ace2c" y="426.887108"/>
      </g>
     </g>
     <g id="text_6">
      <!-- 50 -->
      <defs>
       <path d="M 10.796875 72.90625 
L 49.515625 72.90625 
L 49.515625 64.59375 
L 19.828125 64.59375 
L 19.828125 46.734375 
Q 21.96875 47.46875 24.109375 47.828125 
Q 26.265625 48.1875 28.421875 48.1875 
Q 40.625 48.1875 47.75 41.5 
Q 54.890625 34.8125 54.890625 23.390625 
Q 54.890625 11.625 47.5625 5.09375 
Q 40.234375 -1.421875 26.90625 -1.421875 
Q 22.3125 -1.421875 17.546875 -0.640625 
Q 12.796875 0.140625 7.71875 1.703125 
L 7.71875 11.625 
Q 12.109375 9.234375 16.796875 8.0625 
Q 21.484375 6.890625 26.703125 6.890625 
Q 35.15625 6.890625 40.078125 11.328125 
Q 45.015625 15.765625 45.015625 23.390625 
Q 45.015625 31 40.078125 35.4375 
Q 35.15625 39.890625 26.703125 39.890625 
Q 22.75 39.890625 18.8125 39.015625 
Q 14.890625 38.140625 10.796875 36.28125 
z
" id="DejaVuSans-35"/>
      </defs>
      <g transform="translate(995.211408 441.485545)scale(0.1 -0.1)">
       <use xlink:href="#DejaVuSans-35"/>
       <use x="63.623047" xlink:href="#DejaVuSans-30"/>
      </g>
     </g>
    </g>
    <g id="xtick_7">
     <g id="line2d_7">
      <g>
       <use style="stroke:#000000;stroke-width:0.8;" x="1158.504369" xlink:href="#m5e3c9ace2c" y="426.887108"/>
      </g>
     </g>
     <g id="text_7">
      <!-- 60 -->
      <defs>
       <path d="M 33.015625 40.375 
Q 26.375 40.375 22.484375 35.828125 
Q 18.609375 31.296875 18.609375 23.390625 
Q 18.609375 15.53125 22.484375 10.953125 
Q 26.375 6.390625 33.015625 6.390625 
Q 39.65625 6.390625 43.53125 10.953125 
Q 47.40625 15.53125 47.40625 23.390625 
Q 47.40625 31.296875 43.53125 35.828125 
Q 39.65625 40.375 33.015625 40.375 
z
M 52.59375 71.296875 
L 52.59375 62.3125 
Q 48.875 64.0625 45.09375 64.984375 
Q 41.3125 65.921875 37.59375 65.921875 
Q 27.828125 65.921875 22.671875 59.328125 
Q 17.53125 52.734375 16.796875 39.40625 
Q 19.671875 43.65625 24.015625 45.921875 
Q 28.375 48.1875 33.59375 48.1875 
Q 44.578125 48.1875 50.953125 41.515625 
Q 57.328125 34.859375 57.328125 23.390625 
Q 57.328125 12.15625 50.6875 5.359375 
Q 44.046875 -1.421875 33.015625 -1.421875 
Q 20.359375 -1.421875 13.671875 8.265625 
Q 6.984375 17.96875 6.984375 36.375 
Q 6.984375 53.65625 15.1875 63.9375 
Q 23.390625 74.21875 37.203125 74.21875 
Q 40.921875 74.21875 44.703125 73.484375 
Q 48.484375 72.75 52.59375 71.296875 
z
" id="DejaVuSans-36"/>
      </defs>
      <g transform="translate(1152.141869 441.485545)scale(0.1 -0.1)">
       <use xlink:href="#DejaVuSans-36"/>
       <use x="63.623047" xlink:href="#DejaVuSans-30"/>
      </g>
     </g>
    </g>
    <g id="xtick_8">
     <g id="line2d_8">
      <g>
       <use style="stroke:#000000;stroke-width:0.8;" x="1315.434831" xlink:href="#m5e3c9ace2c" y="426.887108"/>
      </g>
     </g>
     <g id="text_8">
      <!-- 70 -->
      <defs>
       <path d="M 8.203125 72.90625 
L 55.078125 72.90625 
L 55.078125 68.703125 
L 28.609375 0 
L 18.3125 0 
L 43.21875 64.59375 
L 8.203125 64.59375 
z
" id="DejaVuSans-37"/>
      </defs>
      <g transform="translate(1309.072331 441.485545)scale(0.1 -0.1)">
       <use xlink:href="#DejaVuSans-37"/>
       <use x="63.623047" xlink:href="#DejaVuSans-30"/>
      </g>
     </g>
    </g>
    <g id="text_9">
     <!-- $r$ -->
     <defs>
      <path d="M 41.109375 46.296875 
Q 39.59375 47.171875 37.8125 47.578125 
Q 36.03125 48 33.890625 48 
Q 26.265625 48 22.1875 43.046875 
Q 18.109375 38.09375 18.109375 28.8125 
L 18.109375 0 
L 9.078125 0 
L 9.078125 54.6875 
L 18.109375 54.6875 
L 18.109375 46.1875 
Q 20.953125 51.171875 25.484375 53.578125 
Q 30.03125 56 36.53125 56 
Q 37.453125 56 38.578125 55.875 
Q 39.703125 55.765625 41.0625 55.515625 
z
" id="DejaVuSans-72"/>
     </defs>
     <g transform="translate(825.8004 458.962889)scale(0.15 -0.15)">
      <use xlink:href="#DejaVuSans-72"/>
     </g>
    </g>
   </g>
   <g id="matplotlib.axis_2">
    <g id="ytick_1">
     <g id="line2d_9">
      <defs>
       <path d="M 0 0 
L -3.5 0 
" id="m2a3b5ba392" style="stroke:#000000;stroke-width:0.8;"/>
      </defs>
      <g>
       <use style="stroke:#000000;stroke-width:0.8;" x="216.9216" xlink:href="#m2a3b5ba392" y="426.887108"/>
      </g>
     </g>
     <g id="text_10">
      <!-- 0.000000 -->
      <defs>
       <path d="M 10.6875 12.40625 
L 21 12.40625 
L 21 0 
L 10.6875 0 
z
" id="DejaVuSans-2e"/>
      </defs>
      <g transform="translate(162.205975 430.686327)scale(0.1 -0.1)">
       <use xlink:href="#DejaVuSans-30"/>
       <use x="63.623047" xlink:href="#DejaVuSans-2e"/>
       <use x="95.410156" xlink:href="#DejaVuSans-30"/>
       <use x="159.033203" xlink:href="#DejaVuSans-30"/>
       <use x="222.65625" xlink:href="#DejaVuSans-30"/>
       <use x="286.279297" xlink:href="#DejaVuSans-30"/>
       <use x="349.902344" xlink:href="#DejaVuSans-30"/>
       <use x="413.525391" xlink:href="#DejaVuSans-30"/>
      </g>
     </g>
    </g>
    <g id="ytick_2">
     <g id="line2d_10">
      <g>
       <use style="stroke:#000000;stroke-width:0.8;" x="216.9216" xlink:href="#m2a3b5ba392" y="371.279349"/>
      </g>
     </g>
     <g id="text_11">
      <!-- 0.000001 -->
      <g transform="translate(162.205975 375.078568)scale(0.1 -0.1)">
       <use xlink:href="#DejaVuSans-30"/>
       <use x="63.623047" xlink:href="#DejaVuSans-2e"/>
       <use x="95.410156" xlink:href="#DejaVuSans-30"/>
       <use x="159.033203" xlink:href="#DejaVuSans-30"/>
       <use x="222.65625" xlink:href="#DejaVuSans-30"/>
       <use x="286.279297" xlink:href="#DejaVuSans-30"/>
       <use x="349.902344" xlink:href="#DejaVuSans-30"/>
       <use x="413.525391" xlink:href="#DejaVuSans-31"/>
      </g>
     </g>
    </g>
    <g id="ytick_3">
     <g id="line2d_11">
      <g>
       <use style="stroke:#000000;stroke-width:0.8;" x="216.9216" xlink:href="#m2a3b5ba392" y="315.67159"/>
      </g>
     </g>
     <g id="text_12">
      <!-- 0.000002 -->
      <g transform="translate(162.205975 319.470809)scale(0.1 -0.1)">
       <use xlink:href="#DejaVuSans-30"/>
       <use x="63.623047" xlink:href="#DejaVuSans-2e"/>
       <use x="95.410156" xlink:href="#DejaVuSans-30"/>
       <use x="159.033203" xlink:href="#DejaVuSans-30"/>
       <use x="222.65625" xlink:href="#DejaVuSans-30"/>
       <use x="286.279297" xlink:href="#DejaVuSans-30"/>
       <use x="349.902344" xlink:href="#DejaVuSans-30"/>
       <use x="413.525391" xlink:href="#DejaVuSans-32"/>
      </g>
     </g>
    </g>
    <g id="ytick_4">
     <g id="line2d_12">
      <g>
       <use style="stroke:#000000;stroke-width:0.8;" x="216.9216" xlink:href="#m2a3b5ba392" y="260.063832"/>
      </g>
     </g>
     <g id="text_13">
      <!-- 0.000003 -->
      <g transform="translate(162.205975 263.86305)scale(0.1 -0.1)">
       <use xlink:href="#DejaVuSans-30"/>
       <use x="63.623047" xlink:href="#DejaVuSans-2e"/>
       <use x="95.410156" xlink:href="#DejaVuSans-30"/>
       <use x="159.033203" xlink:href="#DejaVuSans-30"/>
       <use x="222.65625" xlink:href="#DejaVuSans-30"/>
       <use x="286.279297" xlink:href="#DejaVuSans-30"/>
       <use x="349.902344" xlink:href="#DejaVuSans-30"/>
       <use x="413.525391" xlink:href="#DejaVuSans-33"/>
      </g>
     </g>
    </g>
    <g id="ytick_5">
     <g id="line2d_13">
      <g>
       <use style="stroke:#000000;stroke-width:0.8;" x="216.9216" xlink:href="#m2a3b5ba392" y="204.456073"/>
      </g>
     </g>
     <g id="text_14">
      <!-- 0.000004 -->
      <g transform="translate(162.205975 208.255292)scale(0.1 -0.1)">
       <use xlink:href="#DejaVuSans-30"/>
       <use x="63.623047" xlink:href="#DejaVuSans-2e"/>
       <use x="95.410156" xlink:href="#DejaVuSans-30"/>
       <use x="159.033203" xlink:href="#DejaVuSans-30"/>
       <use x="222.65625" xlink:href="#DejaVuSans-30"/>
       <use x="286.279297" xlink:href="#DejaVuSans-30"/>
       <use x="349.902344" xlink:href="#DejaVuSans-30"/>
       <use x="413.525391" xlink:href="#DejaVuSans-34"/>
      </g>
     </g>
    </g>
    <g id="ytick_6">
     <g id="line2d_14">
      <g>
       <use style="stroke:#000000;stroke-width:0.8;" x="216.9216" xlink:href="#m2a3b5ba392" y="148.848314"/>
      </g>
     </g>
     <g id="text_15">
      <!-- 0.000005 -->
      <g transform="translate(162.205975 152.647533)scale(0.1 -0.1)">
       <use xlink:href="#DejaVuSans-30"/>
       <use x="63.623047" xlink:href="#DejaVuSans-2e"/>
       <use x="95.410156" xlink:href="#DejaVuSans-30"/>
       <use x="159.033203" xlink:href="#DejaVuSans-30"/>
       <use x="222.65625" xlink:href="#DejaVuSans-30"/>
       <use x="286.279297" xlink:href="#DejaVuSans-30"/>
       <use x="349.902344" xlink:href="#DejaVuSans-30"/>
       <use x="413.525391" xlink:href="#DejaVuSans-35"/>
      </g>
     </g>
    </g>
    <g id="ytick_7">
     <g id="line2d_15">
      <g>
       <use style="stroke:#000000;stroke-width:0.8;" x="216.9216" xlink:href="#m2a3b5ba392" y="93.240555"/>
      </g>
     </g>
     <g id="text_16">
      <!-- 0.000006 -->
      <g transform="translate(162.205975 97.039774)scale(0.1 -0.1)">
       <use xlink:href="#DejaVuSans-30"/>
       <use x="63.623047" xlink:href="#DejaVuSans-2e"/>
       <use x="95.410156" xlink:href="#DejaVuSans-30"/>
       <use x="159.033203" xlink:href="#DejaVuSans-30"/>
       <use x="222.65625" xlink:href="#DejaVuSans-30"/>
       <use x="286.279297" xlink:href="#DejaVuSans-30"/>
       <use x="349.902344" xlink:href="#DejaVuSans-30"/>
       <use x="413.525391" xlink:href="#DejaVuSans-36"/>
      </g>
     </g>
    </g>
    <g id="text_17">
     <!-- $P(r)$ -->
     <defs>
      <path d="M 19.671875 64.796875 
L 19.671875 37.40625 
L 32.078125 37.40625 
Q 38.96875 37.40625 42.71875 40.96875 
Q 46.484375 44.53125 46.484375 51.125 
Q 46.484375 57.671875 42.71875 61.234375 
Q 38.96875 64.796875 32.078125 64.796875 
z
M 9.8125 72.90625 
L 32.078125 72.90625 
Q 44.34375 72.90625 50.609375 67.359375 
Q 56.890625 61.8125 56.890625 51.125 
Q 56.890625 40.328125 50.609375 34.8125 
Q 44.34375 29.296875 32.078125 29.296875 
L 19.671875 29.296875 
L 19.671875 0 
L 9.8125 0 
z
" id="DejaVuSans-50"/>
      <path d="M 31 75.875 
Q 24.46875 64.65625 21.28125 53.65625 
Q 18.109375 42.671875 18.109375 31.390625 
Q 18.109375 20.125 21.3125 9.0625 
Q 24.515625 -2 31 -13.1875 
L 23.1875 -13.1875 
Q 15.875 -1.703125 12.234375 9.375 
Q 8.59375 20.453125 8.59375 31.390625 
Q 8.59375 42.28125 12.203125 53.3125 
Q 15.828125 64.359375 23.1875 75.875 
z
" id="DejaVuSans-28"/>
      <path d="M 8.015625 75.875 
L 15.828125 75.875 
Q 23.140625 64.359375 26.78125 53.3125 
Q 30.421875 42.28125 30.421875 31.390625 
Q 30.421875 20.453125 26.78125 9.375 
Q 23.140625 -1.703125 15.828125 -13.1875 
L 8.015625 -13.1875 
Q 14.5 -2 17.703125 9.0625 
Q 20.90625 20.125 20.90625 31.390625 
Q 20.90625 42.671875 17.703125 53.65625 
Q 14.5 64.65625 8.015625 75.875 
z
" id="DejaVuSans-29"/>
     </defs>
     <g transform="translate(155.086444 260.106754)rotate(-90)scale(0.15 -0.15)">
      <use transform="translate(0 0.125)" xlink:href="#DejaVuSans-50"/>
      <use transform="translate(60.302734 0.125)" xlink:href="#DejaVuSans-28"/>
      <use transform="translate(99.316406 0.125)" xlink:href="#DejaVuSans-72"/>
      <use transform="translate(140.429688 0.125)" xlink:href="#DejaVuSans-29"/>
     </g>
    </g>
   </g>
   <g id="line2d_16">
    <path clip-path="url(#p7d65898075)" d="M 216.9216 426.887108 
L 225.79131 423.051285 
L 234.654742 418.601552 
L 243.537006 413.535685 
L 252.403577 407.847011 
L 261.270148 401.546652 
L 270.13672 394.623486 
L 279.018984 387.077513 
L 287.885555 378.919855 
L 296.752126 370.167194 
L 305.618697 360.769483 
L 314.485268 350.815694 
L 323.367532 340.305828 
L 332.234103 329.184276 
L 341.100674 317.617862 
L 349.967245 305.550978 
L 358.833816 293.09484 
L 367.71608 280.249448 
L 385.464916 253.780155 
L 411.986164 213.075275 
L 429.876236 186.327943 
L 438.664342 173.371336 
L 447.609378 160.803982 
L 456.397484 148.681491 
L 465.342521 137.115077 
L 474.130626 126.271564 
L 483.075663 116.095344 
L 491.863769 106.753241 
L 500.808805 98.300861 
L 509.596911 90.738206 
L 518.541947 84.120883 
L 527.330053 78.560107 
L 536.275089 74.000271 
L 545.063195 70.496982 
L 554.008231 68.050241 
L 562.796337 66.660047 
L 571.741374 66.3264 
L 580.529479 66.938085 
L 589.474516 68.55071 
L 598.262622 71.053059 
L 607.207658 74.500741 
L 615.995764 78.782538 
L 624.9408 83.787236 
L 633.885836 89.514835 
L 642.673942 95.909728 
L 651.618978 102.860698 
L 660.407084 110.312137 
L 669.352121 118.208439 
L 678.140226 126.438387 
L 687.085263 135.001982 
L 704.818405 152.740857 
L 713.606511 161.86053 
L 722.551547 170.980202 
L 731.339653 180.155482 
L 758.017831 207.236461 
L 766.805937 216.078094 
L 784.539079 233.205284 
L 802.272222 249.553965 
L 820.005364 265.179745 
L 828.9504 272.631185 
L 846.683542 286.977987 
L 864.416684 300.490672 
L 882.149826 313.224849 
L 899.882969 325.236125 
L 917.616111 336.468892 
L 935.349253 346.867543 
L 953.082395 356.37647 
L 962.027431 360.769483 
L 970.815537 364.940065 
L 979.760574 368.832608 
L 988.548679 372.480477 
L 997.493716 375.850307 
L 1006.281822 378.947659 
L 1015.226858 381.772533 
L 1024.014964 384.33049 
L 1032.96 386.627091 
L 1041.905036 388.667895 
L 1050.693142 390.475148 
L 1059.638178 392.065529 
L 1068.426284 393.455723 
L 1077.371321 394.673533 
L 1086.159426 395.741202 
L 1103.892569 397.542894 
L 1157.091995 402.286235 
L 1174.825137 404.226946 
L 1192.558279 406.47906 
L 1210.291422 409.020335 
L 1263.647778 416.922198 
L 1272.435884 418.01767 
L 1281.380921 418.974124 
L 1290.169026 419.774876 
L 1299.114063 420.386561 
L 1307.902169 420.803619 
L 1316.847205 421.009368 
L 1325.635311 421.003807 
L 1334.580347 420.775815 
L 1343.368453 420.342075 
L 1352.313489 419.708146 
L 1361.101595 418.907395 
L 1370.046631 417.962063 
L 1387.779774 415.787799 
L 1405.512916 413.574611 
L 1414.301022 412.601475 
L 1423.246058 411.806284 
L 1432.034164 411.261328 
L 1440.9792 411.055579 
L 1440.9792 411.055579 
" style="fill:none;stroke:#ff7f0e;stroke-linecap:square;stroke-width:1.5;"/>
   </g>
   <g id="patch_3">
    <path d="M 216.9216 426.887108 
L 216.9216 66.3264 
" style="fill:none;stroke:#000000;stroke-linecap:square;stroke-linejoin:miter;stroke-width:0.8;"/>
   </g>
   <g id="patch_4">
    <path d="M 1440.9792 426.887108 
L 1440.9792 66.3264 
" style="fill:none;"/>
   </g>
   <g id="patch_5">
    <path d="M 216.9216 426.887108 
L 1440.9792 426.887108 
" style="fill:none;stroke:#000000;stroke-linecap:square;stroke-linejoin:miter;stroke-width:0.8;"/>
   </g>
   <g id="patch_6">
    <path d="M 216.9216 66.3264 
L 1440.9792 66.3264 
" style="fill:none;"/>
   </g>
   <g id="text_18">
    <!-- Pair Distance Distribution Function -->
    <defs>
     <path d="M 34.28125 27.484375 
Q 23.390625 27.484375 19.1875 25 
Q 14.984375 22.515625 14.984375 16.5 
Q 14.984375 11.71875 18.140625 8.90625 
Q 21.296875 6.109375 26.703125 6.109375 
Q 34.1875 6.109375 38.703125 11.40625 
Q 43.21875 16.703125 43.21875 25.484375 
L 43.21875 27.484375 
z
M 52.203125 31.203125 
L 52.203125 0 
L 43.21875 0 
L 43.21875 8.296875 
Q 40.140625 3.328125 35.546875 0.953125 
Q 30.953125 -1.421875 24.3125 -1.421875 
Q 15.921875 -1.421875 10.953125 3.296875 
Q 6 8.015625 6 15.921875 
Q 6 25.140625 12.171875 29.828125 
Q 18.359375 34.515625 30.609375 34.515625 
L 43.21875 34.515625 
L 43.21875 35.40625 
Q 43.21875 41.609375 39.140625 45 
Q 35.0625 48.390625 27.6875 48.390625 
Q 23 48.390625 18.546875 47.265625 
Q 14.109375 46.140625 10.015625 43.890625 
L 10.015625 52.203125 
Q 14.9375 54.109375 19.578125 55.046875 
Q 24.21875 56 28.609375 56 
Q 40.484375 56 46.34375 49.84375 
Q 52.203125 43.703125 52.203125 31.203125 
z
" id="DejaVuSans-61"/>
     <path d="M 9.421875 54.6875 
L 18.40625 54.6875 
L 18.40625 0 
L 9.421875 0 
z
M 9.421875 75.984375 
L 18.40625 75.984375 
L 18.40625 64.59375 
L 9.421875 64.59375 
z
" id="DejaVuSans-69"/>
     <path id="DejaVuSans-20"/>
     <path d="M 19.671875 64.796875 
L 19.671875 8.109375 
L 31.59375 8.109375 
Q 46.6875 8.109375 53.6875 14.9375 
Q 60.6875 21.78125 60.6875 36.53125 
Q 60.6875 51.171875 53.6875 57.984375 
Q 46.6875 64.796875 31.59375 64.796875 
z
M 9.8125 72.90625 
L 30.078125 72.90625 
Q 51.265625 72.90625 61.171875 64.09375 
Q 71.09375 55.28125 71.09375 36.53125 
Q 71.09375 17.671875 61.125 8.828125 
Q 51.171875 0 30.078125 0 
L 9.8125 0 
z
" id="DejaVuSans-44"/>
     <path d="M 44.28125 53.078125 
L 44.28125 44.578125 
Q 40.484375 46.53125 36.375 47.5 
Q 32.28125 48.484375 27.875 48.484375 
Q 21.1875 48.484375 17.84375 46.4375 
Q 14.5 44.390625 14.5 40.28125 
Q 14.5 37.15625 16.890625 35.375 
Q 19.28125 33.59375 26.515625 31.984375 
L 29.59375 31.296875 
Q 39.15625 29.25 43.1875 25.515625 
Q 47.21875 21.78125 47.21875 15.09375 
Q 47.21875 7.46875 41.1875 3.015625 
Q 35.15625 -1.421875 24.609375 -1.421875 
Q 20.21875 -1.421875 15.453125 -0.5625 
Q 10.6875 0.296875 5.421875 2 
L 5.421875 11.28125 
Q 10.40625 8.6875 15.234375 7.390625 
Q 20.0625 6.109375 24.8125 6.109375 
Q 31.15625 6.109375 34.5625 8.28125 
Q 37.984375 10.453125 37.984375 14.40625 
Q 37.984375 18.0625 35.515625 20.015625 
Q 33.0625 21.96875 24.703125 23.78125 
L 21.578125 24.515625 
Q 13.234375 26.265625 9.515625 29.90625 
Q 5.8125 33.546875 5.8125 39.890625 
Q 5.8125 47.609375 11.28125 51.796875 
Q 16.75 56 26.8125 56 
Q 31.78125 56 36.171875 55.265625 
Q 40.578125 54.546875 44.28125 53.078125 
z
" id="DejaVuSans-73"/>
     <path d="M 18.3125 70.21875 
L 18.3125 54.6875 
L 36.8125 54.6875 
L 36.8125 47.703125 
L 18.3125 47.703125 
L 18.3125 18.015625 
Q 18.3125 11.328125 20.140625 9.421875 
Q 21.96875 7.515625 27.59375 7.515625 
L 36.8125 7.515625 
L 36.8125 0 
L 27.59375 0 
Q 17.1875 0 13.234375 3.875 
Q 9.28125 7.765625 9.28125 18.015625 
L 9.28125 47.703125 
L 2.6875 47.703125 
L 2.6875 54.6875 
L 9.28125 54.6875 
L 9.28125 70.21875 
z
" id="DejaVuSans-74"/>
     <path d="M 54.890625 33.015625 
L 54.890625 0 
L 45.90625 0 
L 45.90625 32.71875 
Q 45.90625 40.484375 42.875 44.328125 
Q 39.84375 48.1875 33.796875 48.1875 
Q 26.515625 48.1875 22.3125 43.546875 
Q 18.109375 38.921875 18.109375 30.90625 
L 18.109375 0 
L 9.078125 0 
L 9.078125 54.6875 
L 18.109375 54.6875 
L 18.109375 46.1875 
Q 21.34375 51.125 25.703125 53.5625 
Q 30.078125 56 35.796875 56 
Q 45.21875 56 50.046875 50.171875 
Q 54.890625 44.34375 54.890625 33.015625 
z
" id="DejaVuSans-6e"/>
     <path d="M 48.78125 52.59375 
L 48.78125 44.1875 
Q 44.96875 46.296875 41.140625 47.34375 
Q 37.3125 48.390625 33.40625 48.390625 
Q 24.65625 48.390625 19.8125 42.84375 
Q 14.984375 37.3125 14.984375 27.296875 
Q 14.984375 17.28125 19.8125 11.734375 
Q 24.65625 6.203125 33.40625 6.203125 
Q 37.3125 6.203125 41.140625 7.25 
Q 44.96875 8.296875 48.78125 10.40625 
L 48.78125 2.09375 
Q 45.015625 0.34375 40.984375 -0.53125 
Q 36.96875 -1.421875 32.421875 -1.421875 
Q 20.0625 -1.421875 12.78125 6.34375 
Q 5.515625 14.109375 5.515625 27.296875 
Q 5.515625 40.671875 12.859375 48.328125 
Q 20.21875 56 33.015625 56 
Q 37.15625 56 41.109375 55.140625 
Q 45.0625 54.296875 48.78125 52.59375 
z
" id="DejaVuSans-63"/>
     <path d="M 56.203125 29.59375 
L 56.203125 25.203125 
L 14.890625 25.203125 
Q 15.484375 15.921875 20.484375 11.0625 
Q 25.484375 6.203125 34.421875 6.203125 
Q 39.59375 6.203125 44.453125 7.46875 
Q 49.3125 8.734375 54.109375 11.28125 
L 54.109375 2.78125 
Q 49.265625 0.734375 44.1875 -0.34375 
Q 39.109375 -1.421875 33.890625 -1.421875 
Q 20.796875 -1.421875 13.15625 6.1875 
Q 5.515625 13.8125 5.515625 26.8125 
Q 5.515625 40.234375 12.765625 48.109375 
Q 20.015625 56 32.328125 56 
Q 43.359375 56 49.78125 48.890625 
Q 56.203125 41.796875 56.203125 29.59375 
z
M 47.21875 32.234375 
Q 47.125 39.59375 43.09375 43.984375 
Q 39.0625 48.390625 32.421875 48.390625 
Q 24.90625 48.390625 20.390625 44.140625 
Q 15.875 39.890625 15.1875 32.171875 
z
" id="DejaVuSans-65"/>
     <path d="M 48.6875 27.296875 
Q 48.6875 37.203125 44.609375 42.84375 
Q 40.53125 48.484375 33.40625 48.484375 
Q 26.265625 48.484375 22.1875 42.84375 
Q 18.109375 37.203125 18.109375 27.296875 
Q 18.109375 17.390625 22.1875 11.75 
Q 26.265625 6.109375 33.40625 6.109375 
Q 40.53125 6.109375 44.609375 11.75 
Q 48.6875 17.390625 48.6875 27.296875 
z
M 18.109375 46.390625 
Q 20.953125 51.265625 25.265625 53.625 
Q 29.59375 56 35.59375 56 
Q 45.5625 56 51.78125 48.09375 
Q 58.015625 40.1875 58.015625 27.296875 
Q 58.015625 14.40625 51.78125 6.484375 
Q 45.5625 -1.421875 35.59375 -1.421875 
Q 29.59375 -1.421875 25.265625 0.953125 
Q 20.953125 3.328125 18.109375 8.203125 
L 18.109375 0 
L 9.078125 0 
L 9.078125 75.984375 
L 18.109375 75.984375 
z
" id="DejaVuSans-62"/>
     <path d="M 8.5 21.578125 
L 8.5 54.6875 
L 17.484375 54.6875 
L 17.484375 21.921875 
Q 17.484375 14.15625 20.5 10.265625 
Q 23.53125 6.390625 29.59375 6.390625 
Q 36.859375 6.390625 41.078125 11.03125 
Q 45.3125 15.671875 45.3125 23.6875 
L 45.3125 54.6875 
L 54.296875 54.6875 
L 54.296875 0 
L 45.3125 0 
L 45.3125 8.40625 
Q 42.046875 3.421875 37.71875 1 
Q 33.40625 -1.421875 27.6875 -1.421875 
Q 18.265625 -1.421875 13.375 4.4375 
Q 8.5 10.296875 8.5 21.578125 
z
M 31.109375 56 
z
" id="DejaVuSans-75"/>
     <path d="M 30.609375 48.390625 
Q 23.390625 48.390625 19.1875 42.75 
Q 14.984375 37.109375 14.984375 27.296875 
Q 14.984375 17.484375 19.15625 11.84375 
Q 23.34375 6.203125 30.609375 6.203125 
Q 37.796875 6.203125 41.984375 11.859375 
Q 46.1875 17.53125 46.1875 27.296875 
Q 46.1875 37.015625 41.984375 42.703125 
Q 37.796875 48.390625 30.609375 48.390625 
z
M 30.609375 56 
Q 42.328125 56 49.015625 48.375 
Q 55.71875 40.765625 55.71875 27.296875 
Q 55.71875 13.875 49.015625 6.21875 
Q 42.328125 -1.421875 30.609375 -1.421875 
Q 18.84375 -1.421875 12.171875 6.21875 
Q 5.515625 13.875 5.515625 27.296875 
Q 5.515625 40.765625 12.171875 48.375 
Q 18.84375 56 30.609375 56 
z
" id="DejaVuSans-6f"/>
     <path d="M 9.8125 72.90625 
L 51.703125 72.90625 
L 51.703125 64.59375 
L 19.671875 64.59375 
L 19.671875 43.109375 
L 48.578125 43.109375 
L 48.578125 34.8125 
L 19.671875 34.8125 
L 19.671875 0 
L 9.8125 0 
z
" id="DejaVuSans-46"/>
    </defs>
    <g transform="translate(689.9829 60.3264)scale(0.16 -0.16)">
     <use xlink:href="#DejaVuSans-50"/>
     <use x="60.240234" xlink:href="#DejaVuSans-61"/>
     <use x="121.519531" xlink:href="#DejaVuSans-69"/>
     <use x="149.302734" xlink:href="#DejaVuSans-72"/>
     <use x="190.416016" xlink:href="#DejaVuSans-20"/>
     <use x="222.203125" xlink:href="#DejaVuSans-44"/>
     <use x="299.205078" xlink:href="#DejaVuSans-69"/>
     <use x="326.988281" xlink:href="#DejaVuSans-73"/>
     <use x="379.087891" xlink:href="#DejaVuSans-74"/>
     <use x="418.296875" xlink:href="#DejaVuSans-61"/>
     <use x="479.576172" xlink:href="#DejaVuSans-6e"/>
     <use x="542.955078" xlink:href="#DejaVuSans-63"/>
     <use x="597.935547" xlink:href="#DejaVuSans-65"/>
     <use x="659.458984" xlink:href="#DejaVuSans-20"/>
     <use x="691.246094" xlink:href="#DejaVuSans-44"/>
     <use x="768.248047" xlink:href="#DejaVuSans-69"/>
     <use x="796.03125" xlink:href="#DejaVuSans-73"/>
     <use x="848.130859" xlink:href="#DejaVuSans-74"/>
     <use x="887.339844" xlink:href="#DejaVuSans-72"/>
     <use x="928.453125" xlink:href="#DejaVuSans-69"/>
     <use x="956.236328" xlink:href="#DejaVuSans-62"/>
     <use x="1019.712891" xlink:href="#DejaVuSans-75"/>
     <use x="1083.091797" xlink:href="#DejaVuSans-74"/>
     <use x="1122.300781" xlink:href="#DejaVuSans-69"/>
     <use x="1150.083984" xlink:href="#DejaVuSans-6f"/>
     <use x="1211.265625" xlink:href="#DejaVuSans-6e"/>
     <use x="1274.644531" xlink:href="#DejaVuSans-20"/>
     <use x="1306.431641" xlink:href="#DejaVuSans-46"/>
     <use x="1363.873047" xlink:href="#DejaVuSans-75"/>
     <use x="1427.251953" xlink:href="#DejaVuSans-6e"/>
     <use x="1490.630859" xlink:href="#DejaVuSans-63"/>
     <use x="1545.611328" xlink:href="#DejaVuSans-74"/>
     <use x="1584.820312" xlink:href="#DejaVuSans-69"/>
     <use x="1612.603516" xlink:href="#DejaVuSans-6f"/>
     <use x="1673.785156" xlink:href="#DejaVuSans-6e"/>
    </g>
   </g>
  </g>
  <g id="axes_2">
   <g id="patch_7">
    <path d="M 216.9216 881.1936 
L 1440.9792 881.1936 
L 1440.9792 520.632892 
L 216.9216 520.632892 
z
" style="fill:#ffffff;"/>
   </g>
   <g id="matplotlib.axis_3">
    <g id="xtick_9">
     <g id="line2d_17">
      <g>
       <use style="stroke:#000000;stroke-width:0.8;" x="331.671022" xlink:href="#m5e3c9ace2c" y="881.1936"/>
      </g>
     </g>
     <g id="text_19">
      <!-- 0.05 -->
      <g transform="translate(320.53821 895.792038)scale(0.1 -0.1)">
       <use xlink:href="#DejaVuSans-30"/>
       <use x="63.623047" xlink:href="#DejaVuSans-2e"/>
       <use x="95.410156" xlink:href="#DejaVuSans-30"/>
       <use x="159.033203" xlink:href="#DejaVuSans-35"/>
      </g>
     </g>
    </g>
    <g id="xtick_10">
     <g id="line2d_18">
      <g>
       <use style="stroke:#000000;stroke-width:0.8;" x="482.771224" xlink:href="#m5e3c9ace2c" y="881.1936"/>
      </g>
     </g>
     <g id="text_20">
      <!-- 0.10 -->
      <g transform="translate(471.638412 895.792038)scale(0.1 -0.1)">
       <use xlink:href="#DejaVuSans-30"/>
       <use x="63.623047" xlink:href="#DejaVuSans-2e"/>
       <use x="95.410156" xlink:href="#DejaVuSans-31"/>
       <use x="159.033203" xlink:href="#DejaVuSans-30"/>
      </g>
     </g>
    </g>
    <g id="xtick_11">
     <g id="line2d_19">
      <g>
       <use style="stroke:#000000;stroke-width:0.8;" x="633.871426" xlink:href="#m5e3c9ace2c" y="881.1936"/>
      </g>
     </g>
     <g id="text_21">
      <!-- 0.15 -->
      <g transform="translate(622.738614 895.792038)scale(0.1 -0.1)">
       <use xlink:href="#DejaVuSans-30"/>
       <use x="63.623047" xlink:href="#DejaVuSans-2e"/>
       <use x="95.410156" xlink:href="#DejaVuSans-31"/>
       <use x="159.033203" xlink:href="#DejaVuSans-35"/>
      </g>
     </g>
    </g>
    <g id="xtick_12">
     <g id="line2d_20">
      <g>
       <use style="stroke:#000000;stroke-width:0.8;" x="784.971628" xlink:href="#m5e3c9ace2c" y="881.1936"/>
      </g>
     </g>
     <g id="text_22">
      <!-- 0.20 -->
      <g transform="translate(773.838816 895.792038)scale(0.1 -0.1)">
       <use xlink:href="#DejaVuSans-30"/>
       <use x="63.623047" xlink:href="#DejaVuSans-2e"/>
       <use x="95.410156" xlink:href="#DejaVuSans-32"/>
       <use x="159.033203" xlink:href="#DejaVuSans-30"/>
      </g>
     </g>
    </g>
    <g id="xtick_13">
     <g id="line2d_21">
      <g>
       <use style="stroke:#000000;stroke-width:0.8;" x="936.071831" xlink:href="#m5e3c9ace2c" y="881.1936"/>
      </g>
     </g>
     <g id="text_23">
      <!-- 0.25 -->
      <g transform="translate(924.939018 895.792038)scale(0.1 -0.1)">
       <use xlink:href="#DejaVuSans-30"/>
       <use x="63.623047" xlink:href="#DejaVuSans-2e"/>
       <use x="95.410156" xlink:href="#DejaVuSans-32"/>
       <use x="159.033203" xlink:href="#DejaVuSans-35"/>
      </g>
     </g>
    </g>
    <g id="xtick_14">
     <g id="line2d_22">
      <g>
       <use style="stroke:#000000;stroke-width:0.8;" x="1087.172033" xlink:href="#m5e3c9ace2c" y="881.1936"/>
      </g>
     </g>
     <g id="text_24">
      <!-- 0.30 -->
      <g transform="translate(1076.03922 895.792038)scale(0.1 -0.1)">
       <use xlink:href="#DejaVuSans-30"/>
       <use x="63.623047" xlink:href="#DejaVuSans-2e"/>
       <use x="95.410156" xlink:href="#DejaVuSans-33"/>
       <use x="159.033203" xlink:href="#DejaVuSans-30"/>
      </g>
     </g>
    </g>
    <g id="xtick_15">
     <g id="line2d_23">
      <g>
       <use style="stroke:#000000;stroke-width:0.8;" x="1238.272235" xlink:href="#m5e3c9ace2c" y="881.1936"/>
      </g>
     </g>
     <g id="text_25">
      <!-- 0.35 -->
      <g transform="translate(1227.139422 895.792038)scale(0.1 -0.1)">
       <use xlink:href="#DejaVuSans-30"/>
       <use x="63.623047" xlink:href="#DejaVuSans-2e"/>
       <use x="95.410156" xlink:href="#DejaVuSans-33"/>
       <use x="159.033203" xlink:href="#DejaVuSans-35"/>
      </g>
     </g>
    </g>
    <g id="xtick_16">
     <g id="line2d_24">
      <g>
       <use style="stroke:#000000;stroke-width:0.8;" x="1389.372437" xlink:href="#m5e3c9ace2c" y="881.1936"/>
      </g>
     </g>
     <g id="text_26">
      <!-- 0.40 -->
      <g transform="translate(1378.239624 895.792038)scale(0.1 -0.1)">
       <use xlink:href="#DejaVuSans-30"/>
       <use x="63.623047" xlink:href="#DejaVuSans-2e"/>
       <use x="95.410156" xlink:href="#DejaVuSans-34"/>
       <use x="159.033203" xlink:href="#DejaVuSans-30"/>
      </g>
     </g>
    </g>
    <g id="text_27">
     <!-- $q$ -->
     <defs>
      <path d="M 14.796875 27.296875 
Q 14.796875 17.390625 18.875 11.75 
Q 22.953125 6.109375 30.078125 6.109375 
Q 37.203125 6.109375 41.296875 11.75 
Q 45.40625 17.390625 45.40625 27.296875 
Q 45.40625 37.203125 41.296875 42.84375 
Q 37.203125 48.484375 30.078125 48.484375 
Q 22.953125 48.484375 18.875 42.84375 
Q 14.796875 37.203125 14.796875 27.296875 
z
M 45.40625 8.203125 
Q 42.578125 3.328125 38.25 0.953125 
Q 33.9375 -1.421875 27.875 -1.421875 
Q 17.96875 -1.421875 11.734375 6.484375 
Q 5.515625 14.40625 5.515625 27.296875 
Q 5.515625 40.1875 11.734375 48.09375 
Q 17.96875 56 27.875 56 
Q 33.9375 56 38.25 53.625 
Q 42.578125 51.265625 45.40625 46.390625 
L 45.40625 54.6875 
L 54.390625 54.6875 
L 54.390625 -20.796875 
L 45.40625 -20.796875 
z
" id="DejaVuSans-71"/>
     </defs>
     <g transform="translate(824.1504 913.238913)scale(0.15 -0.15)">
      <use xlink:href="#DejaVuSans-71"/>
     </g>
    </g>
   </g>
   <g id="matplotlib.axis_4">
    <g id="ytick_8">
     <g id="line2d_25">
      <g>
       <use style="stroke:#000000;stroke-width:0.8;" x="216.9216" xlink:href="#m2a3b5ba392" y="820.260078"/>
      </g>
     </g>
     <g id="text_28">
      <!-- $\mathdefault{10^{-5}}$ -->
      <defs>
       <path d="M 10.59375 35.5 
L 73.1875 35.5 
L 73.1875 27.203125 
L 10.59375 27.203125 
z
" id="DejaVuSans-2212"/>
      </defs>
      <g transform="translate(186.4216 824.059297)scale(0.1 -0.1)">
       <use transform="translate(0 0.684375)" xlink:href="#DejaVuSans-31"/>
       <use transform="translate(63.623047 0.684375)" xlink:href="#DejaVuSans-30"/>
       <use transform="translate(128.203125 38.965625)scale(0.7)" xlink:href="#DejaVuSans-2212"/>
       <use transform="translate(186.855469 38.965625)scale(0.7)" xlink:href="#DejaVuSans-35"/>
      </g>
     </g>
    </g>
    <g id="ytick_9">
     <g id="line2d_26">
      <g>
       <use style="stroke:#000000;stroke-width:0.8;" x="216.9216" xlink:href="#m2a3b5ba392" y="693.838773"/>
      </g>
     </g>
     <g id="text_29">
      <!-- $\mathdefault{10^{-4}}$ -->
      <g transform="translate(186.4216 697.637992)scale(0.1 -0.1)">
       <use transform="translate(0 0.684375)" xlink:href="#DejaVuSans-31"/>
       <use transform="translate(63.623047 0.684375)" xlink:href="#DejaVuSans-30"/>
       <use transform="translate(128.203125 38.965625)scale(0.7)" xlink:href="#DejaVuSans-2212"/>
       <use transform="translate(186.855469 38.965625)scale(0.7)" xlink:href="#DejaVuSans-34"/>
      </g>
     </g>
    </g>
    <g id="ytick_10">
     <g id="line2d_27">
      <g>
       <use style="stroke:#000000;stroke-width:0.8;" x="216.9216" xlink:href="#m2a3b5ba392" y="567.417468"/>
      </g>
     </g>
     <g id="text_30">
      <!-- $\mathdefault{10^{-3}}$ -->
      <g transform="translate(186.4216 571.216686)scale(0.1 -0.1)">
       <use transform="translate(0 0.765625)" xlink:href="#DejaVuSans-31"/>
       <use transform="translate(63.623047 0.765625)" xlink:href="#DejaVuSans-30"/>
       <use transform="translate(128.203125 39.046875)scale(0.7)" xlink:href="#DejaVuSans-2212"/>
       <use transform="translate(186.855469 39.046875)scale(0.7)" xlink:href="#DejaVuSans-33"/>
      </g>
     </g>
    </g>
    <g id="ytick_11">
     <g id="line2d_28">
      <defs>
       <path d="M 0 0 
L -2 0 
" id="ma3e8140967" style="stroke:#000000;stroke-width:0.6;"/>
      </defs>
      <g>
       <use style="stroke:#000000;stroke-width:0.6;" x="216.9216" xlink:href="#ma3e8140967" y="870.568173"/>
      </g>
     </g>
    </g>
    <g id="ytick_12">
     <g id="line2d_29">
      <g>
       <use style="stroke:#000000;stroke-width:0.6;" x="216.9216" xlink:href="#ma3e8140967" y="858.316683"/>
      </g>
     </g>
    </g>
    <g id="ytick_13">
     <g id="line2d_30">
      <g>
       <use style="stroke:#000000;stroke-width:0.6;" x="216.9216" xlink:href="#ma3e8140967" y="848.306486"/>
      </g>
     </g>
    </g>
    <g id="ytick_14">
     <g id="line2d_31">
      <g>
       <use style="stroke:#000000;stroke-width:0.6;" x="216.9216" xlink:href="#ma3e8140967" y="839.842986"/>
      </g>
     </g>
    </g>
    <g id="ytick_15">
     <g id="line2d_32">
      <g>
       <use style="stroke:#000000;stroke-width:0.6;" x="216.9216" xlink:href="#ma3e8140967" y="832.511568"/>
      </g>
     </g>
    </g>
    <g id="ytick_16">
     <g id="line2d_33">
      <g>
       <use style="stroke:#000000;stroke-width:0.6;" x="216.9216" xlink:href="#ma3e8140967" y="826.0448"/>
      </g>
     </g>
    </g>
    <g id="ytick_17">
     <g id="line2d_34">
      <g>
       <use style="stroke:#000000;stroke-width:0.6;" x="216.9216" xlink:href="#ma3e8140967" y="782.203473"/>
      </g>
     </g>
    </g>
    <g id="ytick_18">
     <g id="line2d_35">
      <g>
       <use style="stroke:#000000;stroke-width:0.6;" x="216.9216" xlink:href="#ma3e8140967" y="759.941786"/>
      </g>
     </g>
    </g>
    <g id="ytick_19">
     <g id="line2d_36">
      <g>
       <use style="stroke:#000000;stroke-width:0.6;" x="216.9216" xlink:href="#ma3e8140967" y="744.146868"/>
      </g>
     </g>
    </g>
    <g id="ytick_20">
     <g id="line2d_37">
      <g>
       <use style="stroke:#000000;stroke-width:0.6;" x="216.9216" xlink:href="#ma3e8140967" y="731.895378"/>
      </g>
     </g>
    </g>
    <g id="ytick_21">
     <g id="line2d_38">
      <g>
       <use style="stroke:#000000;stroke-width:0.6;" x="216.9216" xlink:href="#ma3e8140967" y="721.885181"/>
      </g>
     </g>
    </g>
    <g id="ytick_22">
     <g id="line2d_39">
      <g>
       <use style="stroke:#000000;stroke-width:0.6;" x="216.9216" xlink:href="#ma3e8140967" y="713.421681"/>
      </g>
     </g>
    </g>
    <g id="ytick_23">
     <g id="line2d_40">
      <g>
       <use style="stroke:#000000;stroke-width:0.6;" x="216.9216" xlink:href="#ma3e8140967" y="706.090263"/>
      </g>
     </g>
    </g>
    <g id="ytick_24">
     <g id="line2d_41">
      <g>
       <use style="stroke:#000000;stroke-width:0.6;" x="216.9216" xlink:href="#ma3e8140967" y="699.623495"/>
      </g>
     </g>
    </g>
    <g id="ytick_25">
     <g id="line2d_42">
      <g>
       <use style="stroke:#000000;stroke-width:0.6;" x="216.9216" xlink:href="#ma3e8140967" y="655.782168"/>
      </g>
     </g>
    </g>
    <g id="ytick_26">
     <g id="line2d_43">
      <g>
       <use style="stroke:#000000;stroke-width:0.6;" x="216.9216" xlink:href="#ma3e8140967" y="633.520481"/>
      </g>
     </g>
    </g>
    <g id="ytick_27">
     <g id="line2d_44">
      <g>
       <use style="stroke:#000000;stroke-width:0.6;" x="216.9216" xlink:href="#ma3e8140967" y="617.725563"/>
      </g>
     </g>
    </g>
    <g id="ytick_28">
     <g id="line2d_45">
      <g>
       <use style="stroke:#000000;stroke-width:0.6;" x="216.9216" xlink:href="#ma3e8140967" y="605.474073"/>
      </g>
     </g>
    </g>
    <g id="ytick_29">
     <g id="line2d_46">
      <g>
       <use style="stroke:#000000;stroke-width:0.6;" x="216.9216" xlink:href="#ma3e8140967" y="595.463876"/>
      </g>
     </g>
    </g>
    <g id="ytick_30">
     <g id="line2d_47">
      <g>
       <use style="stroke:#000000;stroke-width:0.6;" x="216.9216" xlink:href="#ma3e8140967" y="587.000376"/>
      </g>
     </g>
    </g>
    <g id="ytick_31">
     <g id="line2d_48">
      <g>
       <use style="stroke:#000000;stroke-width:0.6;" x="216.9216" xlink:href="#ma3e8140967" y="579.668958"/>
      </g>
     </g>
    </g>
    <g id="ytick_32">
     <g id="line2d_49">
      <g>
       <use style="stroke:#000000;stroke-width:0.6;" x="216.9216" xlink:href="#ma3e8140967" y="573.202189"/>
      </g>
     </g>
    </g>
    <g id="ytick_33">
     <g id="line2d_50">
      <g>
       <use style="stroke:#000000;stroke-width:0.6;" x="216.9216" xlink:href="#ma3e8140967" y="529.360863"/>
      </g>
     </g>
    </g>
    <g id="text_31">
     <!-- $I(q)$ -->
     <defs>
      <path d="M 9.8125 72.90625 
L 19.671875 72.90625 
L 19.671875 0 
L 9.8125 0 
z
" id="DejaVuSans-49"/>
     </defs>
     <g transform="translate(179.2716 713.738246)rotate(-90)scale(0.15 -0.15)">
      <use transform="translate(0 0.125)" xlink:href="#DejaVuSans-49"/>
      <use transform="translate(29.492188 0.125)" xlink:href="#DejaVuSans-28"/>
      <use transform="translate(68.505859 0.125)" xlink:href="#DejaVuSans-71"/>
      <use transform="translate(131.982422 0.125)" xlink:href="#DejaVuSans-29"/>
     </g>
    </g>
   </g>
   <g id="line2d_51">
    <path clip-path="url(#pc52efa3667)" d="M 216.9216 522.248331 
L 229.038627 523.161701 
L 241.155353 524.331718 
L 253.272078 525.755531 
L 265.388501 527.429133 
L 277.504924 529.348785 
L 289.621347 531.509013 
L 301.737468 533.904847 
L 313.853286 536.530317 
L 325.968803 539.379515 
L 338.084319 542.445637 
L 350.199533 545.723116 
L 362.314445 549.205186 
L 374.429055 552.885623 
L 386.54306 556.758674 
L 398.657066 560.819087 
L 410.770769 565.062793 
L 422.883868 569.485116 
L 439.034062 575.655757 
L 455.183652 582.136123 
L 471.332335 588.925819 
L 487.479507 596.027421 
L 503.626074 603.44638 
L 515.735244 609.222859 
L 527.844415 615.185003 
L 539.953585 621.335648 
L 552.062755 627.677208 
L 564.168903 634.210737 
L 580.309427 643.220142 
L 596.452972 652.563288 
L 612.590474 662.224784 
L 628.727975 672.179196 
L 644.865477 682.388551 
L 665.034332 695.430791 
L 697.300269 716.641451 
L 725.528809 735.103904 
L 741.657245 745.415279 
L 757.782658 755.429662 
L 769.876718 762.68157 
L 781.970778 769.656954 
L 794.061817 776.301574 
L 802.121501 780.518243 
L 810.181186 784.542938 
L 818.240871 788.356062 
L 826.300556 791.938522 
L 834.360241 795.271875 
L 842.416903 798.339488 
L 850.476588 801.127579 
L 858.533251 803.625946 
L 866.589914 805.829454 
L 874.646576 807.738685 
L 882.703239 809.36081 
L 890.75688 810.707487 
L 898.810521 811.797832 
L 906.867184 812.654892 
L 914.920824 813.305011 
L 922.971443 813.778182 
L 935.050393 814.22201 
L 947.129343 814.435894 
L 967.252868 814.51644 
L 1007.496896 814.610477 
L 1071.850472 815.072101 
L 1087.930556 814.867672 
L 1104.010639 814.427007 
L 1120.087701 813.765498 
L 1144.197249 812.508812 
L 1168.300753 811.281646 
L 1184.365727 810.703796 
L 1196.414457 810.486938 
L 1208.457143 810.505321 
L 1220.502851 810.793368 
L 1232.545537 811.372633 
L 1244.585201 812.252443 
L 1256.621843 813.428497 
L 1268.658485 814.881111 
L 1280.695128 816.576138 
L 1296.738947 819.126023 
L 1344.849251 827.157933 
L 1356.873805 828.835844 
L 1368.895338 830.247505 
L 1380.913848 831.359903 
L 1392.932358 832.168053 
L 1404.944824 832.696426 
L 1416.960312 832.994439 
L 1432.973911 833.15315 
L 1440.9792 833.182461 
L 1440.9792 833.182461 
" style="fill:none;stroke:#d62728;stroke-linecap:square;stroke-width:1.5;"/>
   </g>
   <g id="line2d_52">
    <path clip-path="url(#pc52efa3667)" d="M 216.9216 521.718643 
L 220.960811 520.632892 
L 224.999719 520.856043 
L 229.038627 521.230935 
L 233.077536 523.357728 
L 237.116444 523.591764 
L 241.155353 523.17617 
L 245.194261 523.607336 
L 249.233169 525.136405 
L 253.272078 526.054807 
L 261.349895 527.160257 
L 265.388501 527.468636 
L 269.427409 528.737411 
L 273.466318 528.627325 
L 277.504924 529.641866 
L 281.543832 530.20237 
L 285.582438 530.559225 
L 289.621347 531.183115 
L 293.659953 532.099396 
L 297.698861 533.55053 
L 301.737468 534.112493 
L 305.776074 534.340461 
L 309.81468 535.961761 
L 313.853286 536.875495 
L 317.891892 537.36623 
L 321.930499 538.658762 
L 334.046015 541.353884 
L 338.084319 542.388878 
L 342.122623 543.596174 
L 346.161229 545.193495 
L 350.199533 545.356364 
L 354.237837 546.907038 
L 358.276141 547.881523 
L 362.314445 548.701551 
L 366.352447 550.52037 
L 370.390751 551.681603 
L 374.429055 553.185186 
L 378.467057 554.481545 
L 382.505059 555.21959 
L 386.54306 557.136167 
L 390.581062 558.246362 
L 394.619064 559.473932 
L 402.695068 561.451751 
L 406.732767 563.84145 
L 410.770769 565.448646 
L 414.808469 566.289329 
L 418.846168 567.483612 
L 422.883868 568.996658 
L 430.958965 572.805268 
L 434.996665 573.69487 
L 439.034062 575.446724 
L 443.071459 576.985866 
L 447.108857 578.907121 
L 451.146254 580.082567 
L 455.183652 582.426395 
L 459.220747 583.119347 
L 463.257842 585.911362 
L 467.295239 587.205551 
L 471.332335 588.961005 
L 475.369128 590.103995 
L 479.406223 591.894804 
L 487.479507 596.283644 
L 491.516904 598.697205 
L 495.554301 600.556209 
L 499.591699 602.225791 
L 503.626074 604.064488 
L 507.663472 605.576619 
L 511.700869 608.021048 
L 515.735244 608.919317 
L 519.772642 610.969663 
L 523.810039 611.733011 
L 527.844415 615.515595 
L 531.881812 617.461698 
L 535.919209 618.803829 
L 539.953585 621.614139 
L 543.990982 624.200139 
L 548.025358 625.415811 
L 552.062755 627.570199 
L 556.09713 629.527314 
L 560.134528 631.078386 
L 568.203279 635.665587 
L 572.240676 639.302153 
L 576.275051 642.039707 
L 580.309427 643.213809 
L 584.346824 645.121113 
L 588.381199 647.558336 
L 592.415575 652.036141 
L 596.452972 651.565336 
L 600.487348 656.072278 
L 604.521723 658.018315 
L 608.556098 660.265649 
L 612.590474 661.721448 
L 616.624849 665.80115 
L 620.659225 666.727838 
L 624.6936 669.715545 
L 628.727975 672.317774 
L 632.762351 675.173247 
L 636.796726 675.750361 
L 640.831102 679.645058 
L 644.865477 680.267136 
L 648.899852 684.374373 
L 652.934228 686.449599 
L 656.968603 691.049774 
L 661.002979 693.164318 
L 665.034332 695.524014 
L 669.068707 699.340857 
L 673.103083 699.664566 
L 677.137458 702.361867 
L 681.168812 706.650526 
L 685.203187 707.754603 
L 689.23454 711.69752 
L 693.268916 718.319282 
L 697.300269 715.482464 
L 701.334645 716.218823 
L 705.365998 724.470798 
L 709.400373 723.293818 
L 713.431727 727.74947 
L 717.466102 725.638867 
L 721.497456 732.764322 
L 725.528809 735.509949 
L 729.563184 730.860263 
L 733.594538 741.272874 
L 737.625891 750.314505 
L 741.657245 743.513239 
L 745.688598 750.214157 
L 749.719951 758.102541 
L 753.751305 757.966255 
L 757.782658 763.715856 
L 761.814011 756.931102 
L 765.845365 761.647338 
L 769.876718 759.584246 
L 773.908072 760.186471 
L 777.939425 768.921825 
L 781.970778 778.594028 
L 786.002132 767.400729 
L 790.030463 773.021451 
L 794.061817 779.376132 
L 798.09317 788.78549 
L 802.121501 785.376271 
L 806.152855 774.771125 
L 810.181186 768.051323 
L 814.21254 786.585174 
L 818.240871 803.961944 
L 822.272224 791.510478 
L 826.300556 790.792848 
L 830.331909 776.719073 
L 834.360241 812.149566 
L 838.388572 796.051998 
L 842.416903 799.845338 
L 846.448257 805.224494 
L 850.476588 796.923349 
L 854.504919 792.760816 
L 858.533251 798.399924 
L 862.561582 806.203901 
L 866.589914 811.096871 
L 870.618245 789.174649 
L 874.646576 800.344255 
L 878.674908 827.952853 
L 882.703239 812.885783 
L 886.728549 818.310329 
L 890.75688 805.593983 
L 894.785211 816.599247 
L 898.810521 801.163628 
L 902.838852 838.055773 
L 906.867184 819.248782 
L 910.892493 830.468969 
L 914.920824 806.210276 
L 918.946134 813.135007 
L 926.999774 803.402143 
L 931.025084 824.116839 
L 935.050393 812.837801 
L 939.075703 807.385353 
L 943.104034 811.561621 
L 947.129343 804.190914 
L 951.154653 820.480851 
L 955.179962 808.450029 
L 959.205272 814.804006 
L 963.230581 817.814482 
L 967.252868 828.184133 
L 971.278178 820.532749 
L 975.303487 806.146976 
L 979.328796 805.655386 
L 983.351084 814.518418 
L 987.376393 803.283126 
L 991.401703 810.417136 
L 995.42399 824.76966 
L 999.449299 863.464203 
L 1003.471587 806.44585 
L 1007.496896 818.108285 
L 1011.519184 802.944035 
L 1015.541471 820.554769 
L 1023.589068 820.310613 
L 1027.611355 828.347259 
L 1031.633642 808.384095 
L 1035.65593 819.259025 
L 1039.678217 820.135587 
L 1043.700505 821.316315 
L 1047.722792 834.410851 
L 1051.742057 808.889693 
L 1055.764345 795.718458 
L 1059.786632 802.817613 
L 1063.805897 823.679606 
L 1067.828185 815.710206 
L 1071.850472 801.587909 
L 1075.869738 799.50231 
L 1079.892025 824.729263 
L 1083.91129 813.045868 
L 1087.930556 816.827772 
L 1091.952843 815.331472 
L 1095.972108 813.054535 
L 1099.991374 827.060032 
L 1104.010639 821.915604 
L 1108.029905 816.004618 
L 1112.04917 811.858105 
L 1116.068435 794.058345 
L 1120.087701 821.556281 
L 1124.106966 833.585075 
L 1128.123209 829.639072 
L 1132.142475 813.088251 
L 1136.16174 795.597449 
L 1140.177984 808.969646 
L 1144.197249 804.608784 
L 1148.213492 811.691106 
L 1152.232758 826.577443 
L 1156.249001 823.696964 
L 1160.268266 803.919526 
L 1164.28451 817.000827 
L 1168.300753 805.261248 
L 1172.316997 808.777331 
L 1176.33324 815.803274 
L 1180.349483 816.502257 
L 1184.365727 808.495655 
L 1188.38197 819.651828 
L 1192.398213 821.387892 
L 1196.414457 802.091553 
L 1200.427678 805.661698 
L 1204.443922 807.269958 
L 1208.457143 813.304043 
L 1212.473386 815.379676 
L 1216.486608 795.935892 
L 1220.502851 805.083555 
L 1224.516072 808.053408 
L 1228.529294 809.182377 
L 1232.545537 815.94571 
L 1236.558759 822.926 
L 1240.57198 808.535109 
L 1244.585201 802.47661 
L 1248.598423 823.308707 
L 1252.611644 801.828752 
L 1256.621843 815.196126 
L 1260.635065 817.186368 
L 1264.648286 813.054535 
L 1268.658485 818.215561 
L 1272.671707 837.068973 
L 1276.681906 816.31901 
L 1280.695128 802.924012 
L 1284.705327 814.116362 
L 1288.715526 817.617391 
L 1292.728748 808.177513 
L 1296.738947 811.951468 
L 1300.749146 844.142474 
L 1304.759346 826.630506 
L 1308.769545 821.094505 
L 1312.779745 842.01961 
L 1316.789944 851.143989 
L 1320.797121 831.329467 
L 1324.807321 832.815271 
L 1328.81752 821.164286 
L 1332.824697 817.774063 
L 1336.834897 813.325331 
L 1340.842074 818.191763 
L 1344.849251 826.140355 
L 1348.859451 801.561735 
L 1352.866628 829.339762 
L 1356.873805 829.46564 
L 1360.880983 817.967506 
L 1364.88816 821.698578 
L 1368.895338 815.700605 
L 1372.902515 854.560503 
L 1376.90667 864.091645 
L 1380.913848 831.359903 
L 1384.921025 839.728748 
L 1388.92518 818.520565 
L 1392.932358 844.189996 
L 1396.936513 847.17539 
L 1400.940668 831.2093 
L 1404.944824 827.424465 
L 1408.952001 852.128508 
L 1412.956157 811.954772 
L 1416.960312 858.819595 
L 1420.964467 832.213973 
L 1424.968623 881.1936 
L 1428.969756 815.567875 
L 1432.973911 838.777276 
L 1436.978067 814.690287 
L 1440.9792 821.173664 
L 1440.9792 821.173664 
" style="fill:none;stroke:#2ca02c;stroke-linecap:square;stroke-width:1.5;"/>
   </g>
   <g id="patch_8">
    <path d="M 216.9216 881.1936 
L 216.9216 520.632892 
" style="fill:none;stroke:#000000;stroke-linecap:square;stroke-linejoin:miter;stroke-width:0.8;"/>
   </g>
   <g id="patch_9">
    <path d="M 1440.9792 881.1936 
L 1440.9792 520.632892 
" style="fill:none;"/>
   </g>
   <g id="patch_10">
    <path d="M 216.9216 881.1936 
L 1440.9792 881.1936 
" style="fill:none;stroke:#000000;stroke-linecap:square;stroke-linejoin:miter;stroke-width:0.8;"/>
   </g>
   <g id="patch_11">
    <path d="M 216.9216 520.632892 
L 1440.9792 520.632892 
" style="fill:none;"/>
   </g>
   <g id="text_32">
    <!-- Data/Fit -->
    <defs>
     <path d="M 25.390625 72.90625 
L 33.6875 72.90625 
L 8.296875 -9.28125 
L 0 -9.28125 
z
" id="DejaVuSans-2f"/>
    </defs>
    <g transform="translate(797.2029 514.632892)scale(0.16 -0.16)">
     <use xlink:href="#DejaVuSans-44"/>
     <use x="77.001953" xlink:href="#DejaVuSans-61"/>
     <use x="138.28125" xlink:href="#DejaVuSans-74"/>
     <use x="177.490234" xlink:href="#DejaVuSans-61"/>
     <use x="238.769531" xlink:href="#DejaVuSans-2f"/>
     <use x="272.460938" xlink:href="#DejaVuSans-46"/>
     <use x="329.871094" xlink:href="#DejaVuSans-69"/>
     <use x="357.654297" xlink:href="#DejaVuSans-74"/>
    </g>
   </g>
  </g>
 </g>
 <defs>
  <clipPath id="p7d65898075">
   <rect height="360.560708" width="1224.0576" x="216.9216" y="66.3264"/>
  </clipPath>
  <clipPath id="pc52efa3667">
   <rect height="360.560708" width="1224.0576" x="216.9216" y="520.632892"/>
  </clipPath>
 </defs>
</svg>
